<?xml version="1.0" encoding="UTF-8"?>
<svg width="24px" height="24px" viewBox="0 0 24 24" version="1.1" xmlns="http://www.w3.org/2000/svg" xmlns:xlink="http://www.w3.org/1999/xlink">
    <g id="Symbols" stroke="none" stroke-width="1" fill="none" fill-rule="evenodd">
        <g id="HeaderMini" transform="translate(0.000000, -20.000000)" fill="currentColor">
            <path d="M12,20 C18.627417,20 24,25.372583 24,32 C24,38.627417 18.627417,44 12,44 C5.372583,44 0,38.627417 0,32 C0,25.372583 5.372583,20 12,20 Z M14.3807585,27.7234877 C14.3807585,27.7234877 15.168701,27.4591793 15.1315263,28.215803 C14.9452486,28.758288 13.841725,31.1362484 13.1657107,32.0784591 C12.8279056,31.8887933 11.8637872,28.8884028 11.3510185,26.8045264 C10.751374,24.7226893 7.36604975,26.6768589 7.36604975,26.6768589 L7.53454823,27.5215854 C8.3034993,27.0765846 8.89748673,27.0537432 9.11730249,27.9164166 C9.62885903,29.9232031 10.081825,33.7756621 12.2379589,33.7638335 C11.9938988,34.2736878 10.5885326,36.4860475 9.16700348,35.9786405 C9.93353012,35.532416 9.9399953,34.4645772 9.49430268,34.0036689 C8.56533866,33.0414719 7.17694355,33.5341951 6.63791005,34.5991788 C6.29242757,35.2815677 6.34697743,36.0247313 6.64882003,36.6561349 C7.40847742,38.2493276 9.40217402,38.6111202 10.8709797,37.8740748 C13.5815019,36.5145993 15.8083487,31.812927 17.0068295,29.2709975 C17.3882744,28.4617567 17.8521503,27.4469428 17.4367632,26.585493 C16.6767017,25.0086156 13.8393006,25.8582368 14.3807585,27.7234877 Z" id="Y-logo"></path>
        </g>
    </g>
</svg>