<svg xmlns="http://www.w3.org/2000/svg" width="102" height="24" viewBox="0 0 102 24">
    <path fill="currentColor" fill-rule="evenodd" d="M73.467 7.088c.7-1.072 6.442-2.937 5.122.23 2.162-2.017 5.213-2.383 6.614-.563.265.342.466.712.612 1.106l.554-.313c3.33-1.832 5.105-1.8 6.116-.133 1.378 2.28 1.31 5.954 1.659 8.54l.019-.013c.375-.383 6.045-7.879 2.731-7.325-.133-1.117.288-1.959.923-2.45.898-.692 2.507-.68 3.406-.011 1.362 1.012.694 3.402-.18 5.013-2.422 4.454-6.16 9.805-9.278 11.982-3.592 2.331-6.863-.63-6.106-2.99 1.069-3.357 5.251-2.56 5.341.327l.132-.146c.42-.485 1.452-1.783 1.923-2.254l-.092-.018c-.338-.078-1.527-.45-2.181-1.885-1.522-3.322-.267-10.225-4.715-7.343.734 4.904-5.262 11.862-8.892 8.011l-.09.299c-.496 1.558-2.363 6.352-5.448 6.467-1.312.047-3.707-1.158-2.958-2.893.315-.728 1.34-1.48 3.971-1.862 1.557-3.048 2.735-7.69 2.72-8.52l.065-.28c.244-1.117.313-2.466-1.501-1.393l-1.228.779.761-2.362zM72.334 19.91c-.9.179-1.486.403-1.86.637-1.195.752-.285 1.361.64.741.415-.277.825-.763 1.22-1.378zM61.381 1.235l.637.22C59.83 7.438 55.8 6.437 52.102 5.361l-.368-.108c-4.086-1.194-7.817-.32-8.385 4.094l.076-.115c.266-.384 1.224-1.619 2.79-2.085 6.206-1.846 7.091 6.323 3.366 9.786-3.948 3.675-9.411 2.992-10.245-1.583-3.263 3.596-9.976 5.654-11.89.81l-.257.249c-2.197 2.077-5.79 4.177-6.845 1.365-.517-1.376.822-4.357.822-4.357-1.223 1.318-2.629 1.92-3.785 2.152-3.585.714-2.6-3.033-1.82-4.863.236-.551.448-1.102.517-1.664.078-.633-.365-.672-1.117-.33l.606-1.136c.349-.15.723-.288 1.108-.39 2.846-.752 2.734.594 2.124 2.286l-.186.49c-1.048 2.674-.455 3.524 2.959 1.62l.116-.263c.45-1.059 1.318-3.443.835-4.228l.153-.029c.63-.11 2.993-.435 2.993.907 0 1.5-1.734 6.508-2.079 7.61l-.029.094c-.675 2.253 2.257 1.066 3.577-.824-.161-2.046.689-3.947 1.938-5.374 1.11-1.267 2.955-2.402 4.783-2.717 3.8-.65 5.798 2.475 4.076 4.846-1.51 2.084-4.693 2.437-7.044 2.578.148 4.088 6.065 1.746 8.303-.245.158-6.266 3.554-10.54 8.06-11.816 2.329-.658 4.645-.332 6.957.106l1.304.252c2.181.407 4.155.58 5.697-1.056l.17-.189zm-2.315 5.89l.332-.085c2.12-.505 4.588-.441 5.002 2.222.2 1.278-.246 2.528-.758 3.679l-.358.78c-.843 1.82-.798 2.716 1.626 1.674.504 4.455-5.941 5.272-5.272 1.147-4.024 4.651-8.67 1.903-7.622-2.856.766-3.482 4.116-5.772 7.05-6.562zm9.758 7.698c1.182 0 2.14.96 2.14 2.141 0 1.183-.958 2.14-2.14 2.14-1.182 0-2.14-.957-2.14-2.14 0-1.181.958-2.141 2.14-2.141zM12.195 2.973c-.827-2.824 3.508-4.11 4.67-1.723.603 1.24-.007 2.688-.569 3.88l-.808 1.686c-1.932 3.972-5.007 9.713-8.656 11.527-2.244 1.116-5.291.568-6.452-1.844-.461-.956-.544-2.082-.016-3.115.823-1.613 2.945-2.359 4.364-.902.681.698.671 2.315-.5 2.99 2.172.769 4.32-2.58 4.693-3.353-3.295.018-3.987-5.815-4.769-8.854C3.83 2.011 2.98 1.993 1.873 2.59l-.14.077-.257-1.279.333-.177c1.158-.589 4.981-2.297 5.756.37l.193.75c.812 3.08 2.104 6.971 2.58 7.236 1.033-1.426 2.72-5.027 3.004-5.849.057-1.145-1.147-.745-1.147-.745zm31.922 14.103c4.027 2.2 6.9-11.044.79-7.231-1.39 1.457-2.278 6.418-.79 7.231zm17.926-8.344c-6.777.613-7.207 6.835-4.28 6.677 1.28-.069 2.074-.887 2.577-1.99l.189-.427c.866-2.014 1.514-4.26 1.514-4.26zm19.948 4.22c2.192-3.7-.082-6.769-2.705-3.403-.274.655-.694 2.981-1.313 4.987 1.505 1.328 3.398-.537 4.018-1.585zm-46.756-2.154c.933-1.031.4-3.053-1.365-2.227-1.307.61-2.331 2.452-2.466 3.823 1.914-.207 3.218-.92 3.83-1.596zm2.259-8.945c1.733 0 2.163 2.109 1.096 3.126-.554.53-1.41.729-2.163.395.18-.074.345-.174.493-.295-.645-.233-1.107-.843-1.108-1.565 0-.916.753-1.661 1.682-1.661zm-6.792 0c1.733 0 2.164 2.109 1.096 3.126-.554.53-1.41.729-2.164.395.18-.074.348-.174.494-.295-.647-.233-1.108-.843-1.108-1.565 0-.916.753-1.661 1.682-1.661z"/>
</svg>
