<svg width="122" height="36" viewBox="0 0 122 36" fill="none" xmlns="http://www.w3.org/2000/svg">
<path fill-rule="evenodd" clip-rule="evenodd" d="M52.7426 18.1554C51.171 18.1558 49.6479 17.6117 48.4327 16.6158C47.2175 15.6198 46.3855 14.2336 46.0785 12.6934C45.7714 11.1531 46.0082 9.55409 46.7487 8.16878C47.4891 6.78347 48.6873 5.69758 50.1391 5.09613C51.5909 4.49468 53.2064 4.41488 54.7105 4.87034C56.2146 5.32579 57.5141 6.28832 58.3876 7.59391C59.2611 8.8995 59.6546 10.4674 59.501 12.0304C59.3474 13.5934 58.6562 15.0548 57.5453 16.1657C56.9147 16.7963 56.166 17.2965 55.342 17.6379C54.5179 17.9793 53.6347 18.1551 52.7426 18.1554ZM52.7426 14.9987C51.8404 14.9966 50.9713 14.6591 50.3043 14.052C49.6373 13.4449 49.2201 12.6115 49.1339 11.7141C49.0476 10.8166 49.2986 9.91918 49.8378 9.19634C50.377 8.47351 51.166 7.97695 52.0513 7.80326C52.9366 7.62957 53.8549 7.79116 54.6276 8.2566C55.4003 8.72205 55.9721 9.45806 56.2319 10.3215C56.4916 11.1849 56.4207 12.114 56.0329 12.9281C55.6451 13.7421 54.9681 14.3829 54.1337 14.7258C53.6925 14.9073 53.2198 15 52.7426 14.9987Z" fill="currentColor"/>
<path fill-rule="evenodd" clip-rule="evenodd" d="M72.136 8.15752V5.00092H60.3007V8.15752H64.3973V17.5056H67.8115V8.15752H72.136Z" fill="currentColor"/>
<path fill-rule="evenodd" clip-rule="evenodd" d="M108.421 4.96609H112.29L114.953 12.0339L118.207 4.96609H121.622L113.741 21.9521H110.327L113.068 16.1284L108.421 4.96609Z" fill="currentColor"/>
<path d="M91.8953 16.0029C91.8953 15.0613 91.1312 14.2979 90.1886 14.2979C89.246 14.2979 88.4818 15.0613 88.4818 16.0029C88.4818 16.9445 89.246 17.7078 90.1886 17.7078C91.1312 17.7078 91.8953 16.9445 91.8953 16.0029Z" fill="currentColor"/>
<path fill-rule="evenodd" clip-rule="evenodd" d="M3.16007 17.1024C4.27169 17.8051 5.56363 18.1701 6.87889 18.1529C8.19415 18.1358 9.47612 17.7372 10.569 17.0057C11.6619 16.2743 12.5187 15.2413 13.0352 14.0324C13.5517 12.8235 13.7058 11.4907 13.4786 10.196C13.2515 8.90127 12.6529 7.70034 11.7557 6.73912C10.8585 5.77791 9.7012 5.09781 8.42449 4.78145C7.14778 4.4651 5.8066 4.52611 4.56394 4.95708C3.32127 5.38805 2.23061 6.17042 1.42449 7.20912C0.501026 8.39899 0 9.73087 0 12.3488V21.9443H3.16007V17.1024ZM3.16007 11.3671C3.15936 12.2699 3.49475 13.1407 4.10101 13.8101C4.70726 14.4795 5.54101 14.8995 6.44005 14.9886C7.3391 15.0776 8.23913 14.8292 8.96506 14.2918C9.69099 13.7543 10.1909 12.9663 10.3675 12.0808C10.5441 11.1954 10.3848 10.276 9.92061 9.5015C9.45639 8.72697 8.72045 8.1527 7.85597 7.89043C6.99148 7.62816 6.06028 7.69664 5.24352 8.08254C4.42676 8.46845 3.78287 9.14418 3.4371 9.97827C3.25451 10.4186 3.16037 10.8905 3.16007 11.3671Z" fill="currentColor"/>
<path fill-rule="evenodd" clip-rule="evenodd" d="M97.1433 17.1024C98.255 17.8051 99.5469 18.1701 100.862 18.1529C102.177 18.1358 103.459 17.7372 104.552 17.0057C105.645 16.2743 106.502 15.2413 107.018 14.0324C107.535 12.8235 107.689 11.4907 107.462 10.196C107.235 8.90127 106.636 7.70034 105.739 6.73912C104.842 5.77791 103.684 5.09781 102.408 4.78145C101.131 4.4651 99.7899 4.52611 98.5472 4.95708C97.3045 5.38805 96.2139 6.17042 95.4078 7.20912C94.4843 8.39899 93.9833 9.73087 93.9833 12.3488V21.9443H97.1433V17.1024ZM97.1433 11.3671C97.1426 12.2699 97.478 13.1407 98.0843 13.8101C98.6905 14.4795 99.5243 14.8995 100.423 14.9886C101.322 15.0776 102.222 14.8292 102.948 14.2918C103.674 13.7543 104.174 12.9663 104.351 12.0808C104.527 11.1954 104.368 10.276 103.904 9.5015C103.44 8.72697 102.704 8.1527 101.839 7.89043C100.975 7.62816 100.044 7.69664 99.2268 8.08254C98.41 8.46845 97.7661 9.14418 97.4204 9.97827C97.2378 10.4186 97.1436 10.8905 97.1433 11.3671Z" fill="currentColor"/>
<path fill-rule="evenodd" clip-rule="evenodd" d="M25.6166 17.1024C24.505 17.8051 23.213 18.1701 21.8978 18.1529C20.5825 18.1358 19.3006 17.7372 18.2077 17.0057C17.1148 16.2743 16.258 15.2413 15.7415 14.0324C15.225 12.8235 15.0709 11.4907 15.2981 10.196C15.5252 8.90127 16.1237 7.70034 17.021 6.73912C17.9182 5.77791 19.0755 5.09781 20.3522 4.78145C21.6289 4.4651 22.9701 4.52611 24.2127 4.95708C25.4554 5.38805 26.5461 6.17042 27.3522 7.20912C28.2756 8.39899 28.7767 9.73087 28.7767 12.3488V17.9984H25.6166V17.1024ZM25.6166 11.3671C25.6173 12.2699 25.2819 13.1407 24.6757 13.8101C24.0694 14.4795 23.2357 14.8995 22.3366 14.9886C21.4376 15.0776 20.5375 14.8292 19.8116 14.2918C19.0857 13.7543 18.5858 12.9663 18.4092 12.0808C18.2326 11.1954 18.3919 10.276 18.8561 9.5015C19.3203 8.72696 20.0562 8.1527 20.9207 7.89043C21.7852 7.62816 22.7164 7.69664 23.5332 8.08254C24.3499 8.46844 24.9938 9.14418 25.3396 9.97827C25.5222 10.4186 25.6163 10.8905 25.6166 11.3671Z" fill="currentColor"/>
<path fill-rule="evenodd" clip-rule="evenodd" d="M83.5784 17.1024C82.4668 17.8051 81.1748 18.1701 79.8596 18.1529C78.5443 18.1358 77.2624 17.7372 76.1695 17.0057C75.0766 16.2743 74.2198 15.2413 73.7033 14.0324C73.1868 12.8235 73.0327 11.4907 73.2598 10.196C73.487 8.90127 74.0855 7.70034 74.9828 6.73912C75.88 5.77791 77.0373 5.09781 78.314 4.78145C79.5907 4.4651 80.9319 4.52611 82.1745 4.95708C83.4172 5.38805 84.5079 6.17042 85.314 7.20912C86.2374 8.39899 86.7385 9.73087 86.7385 12.3488V17.9984H83.5784V17.1024ZM83.5784 11.3671C83.5791 12.2699 83.2437 13.1407 82.6375 13.8101C82.0312 14.4795 81.1975 14.8995 80.2984 14.9886C79.3994 15.0776 78.4993 14.8292 77.7734 14.2918C77.0475 13.7543 76.5476 12.9663 76.371 12.0808C76.1943 11.1954 76.3536 10.276 76.8179 9.5015C77.2821 8.72696 78.018 8.1527 78.8825 7.89043C79.747 7.62816 80.6782 7.69664 81.4949 8.08254C82.3117 8.46844 82.9556 9.14418 83.3014 9.97827C83.484 10.4186 83.5781 10.8905 83.5784 11.3671Z" fill="currentColor"/>
<path fill-rule="evenodd" clip-rule="evenodd" d="M35.4243 14.3744C36.1485 14.8579 37.0225 15.0652 37.8869 14.9586C38.7514 14.852 39.5487 14.4385 40.1335 13.7935C40.7184 13.1486 41.0518 12.3151 41.0731 11.4449C41.0944 10.5748 40.8022 9.72599 40.2496 9.05321C39.697 8.38043 38.9208 7.92849 38.0627 7.77975C37.2045 7.63101 36.3214 7.79538 35.5744 8.2429C34.8273 8.69042 34.2661 9.39129 33.9929 10.2178C33.7198 11.0442 33.7529 11.9413 34.0862 12.7454C34.361 13.4088 34.8267 13.9758 35.4243 14.3744ZM42.5853 2.95293V0.00772822C42.0221 0.00772822 41.4995 0.00772822 41.0135 0.00380129C38.8653 -0.00601606 37.4146 -0.0125609 36.2836 0.196221C34.062 0.602659 31.9099 2.23299 31.2445 4.4504C30.9059 5.60034 30.659 9.41798 30.6511 11.2093V11.2139C30.6183 12.7387 31.1005 14.2301 32.0197 15.4476C32.939 16.6651 34.2418 17.5377 35.7181 17.9246C37.1944 18.3116 38.7581 18.1903 40.157 17.5805C41.5559 16.9706 42.7084 15.9077 43.4288 14.5631C44.1492 13.2184 44.3953 11.6706 44.1276 10.169C43.8599 8.66751 43.0939 7.29986 41.9531 6.28666C40.8123 5.27345 39.3633 4.67374 37.8397 4.58426C36.3161 4.49477 34.8068 4.92072 33.5551 5.79341C34.0679 4.40655 35.5114 3.3718 36.9031 3.11328C38.1416 2.88552 39.7056 2.91301 41.1988 2.93984C41.6743 2.94508 42.1393 2.95293 42.5853 2.95293Z" fill="currentColor"/>
<path d="M112 28.274L113.45 27.1942H108.599V33.6802H113.45V32.6004H109.983V30.9399H112.94V29.8597H109.983V28.274H112Z" fill="currentColor"/>
<path d="M104.937 29.7225H103.253V28.274H105.942L107.391 27.1942H101.868V33.6806H104.759C106.38 33.6806 107.31 32.9381 107.31 31.643C107.31 30.4043 106.467 29.7225 104.937 29.7225ZM104.696 32.6004H103.252V30.8023H104.696C105.575 30.8023 105.984 31.1031 105.984 31.7011C105.984 32.3124 105.551 32.6004 104.696 32.6004Z" fill="currentColor"/>
<path d="M117.38 27.1942H114.739V33.6806H116.123V31.8435H117.38C119.065 31.8435 120.112 30.9476 120.112 29.5156C120.113 28.0837 119.066 27.1942 117.38 27.1942ZM117.35 30.7632H116.123V28.274H117.35C118.237 28.274 118.726 28.7158 118.726 29.5186C118.726 30.3215 118.237 30.7632 117.35 30.7632Z" fill="currentColor"/>
<path d="M99.492 32.2758C99.1369 32.4737 98.7235 32.5786 98.297 32.5786C97.0491 32.5786 96.1428 31.6781 96.1428 30.4373C96.1428 29.1965 97.0487 28.2955 98.297 28.2955C98.7693 28.2955 99.1924 28.4298 99.5563 28.694L100.549 27.954L100.484 27.8958C99.9037 27.381 99.129 27.1087 98.2437 27.1087C97.2827 27.1087 96.4109 27.4362 95.7886 28.0309C95.1626 28.629 94.8176 29.4709 94.8176 30.4012C94.8176 31.3357 95.1613 32.1899 95.7853 32.8063C96.4109 33.4248 97.2811 33.7655 98.2353 33.7655C99.2332 33.7655 100.105 33.4137 100.695 32.7736C100.239 32.4338 99.7995 32.1063 99.7995 32.1063L99.492 32.2758Z" fill="currentColor"/>
<path d="M90.5264 27.1769C90.781 27.5086 90.9962 27.8697 91.1676 28.252L86.2937 31.8847L84.2559 30.5955V29.0408L86.2924 30.3317L90.5264 27.1769Z" fill="currentColor"/>
<path d="M82.1781 30.4844C82.1781 30.4147 82.1781 30.3451 82.1832 30.2762L80.9487 30.2134C80.9441 30.303 80.942 30.3931 80.942 30.484C80.9403 31.9185 81.5046 33.2943 82.5092 34.307L83.3844 33.4222C82.6122 32.644 82.1781 31.5867 82.1781 30.4844Z" fill="currentColor"/>
<path d="M86.2924 26.3244C86.3613 26.3244 86.4298 26.3265 86.4978 26.3304L86.5596 25.0819C86.4718 25.0764 86.3827 25.0734 86.2924 25.0734C84.8735 25.0722 83.513 25.6426 82.5109 26.6579L83.3861 27.5427C84.1562 26.7619 85.202 26.3236 86.2924 26.3244Z" fill="currentColor"/>
<path d="M86.2925 34.6437C86.2236 34.6437 86.1551 34.642 86.087 34.6386L86.0253 35.8867C86.1139 35.8909 86.203 35.8935 86.2925 35.8935C87.7118 35.8956 89.0736 35.3251 90.0761 34.309L89.2013 33.4242C88.4307 34.2058 87.3841 34.6446 86.2925 34.6437Z" fill="currentColor"/>
<path d="M88.6131 27.0503L89.6538 26.275C88.703 25.4964 87.516 25.0725 86.2925 25.0746V26.3243C87.121 26.323 87.9303 26.5762 88.6131 27.0503Z" fill="currentColor"/>
<path d="M91.6433 30.4842C91.6442 30.1593 91.616 29.8348 91.5593 29.5149L90.4076 30.373C90.4076 30.4099 90.4076 30.4469 90.4076 30.4842C90.4085 31.6605 89.9156 32.7815 89.0518 33.569L89.882 34.4972C91.0055 33.4722 91.6454 32.0139 91.6433 30.4842Z" fill="currentColor"/>
<path d="M86.2925 34.6437C85.1294 34.6437 84.0215 34.1451 83.2429 33.2717L82.3248 34.1115C83.3383 35.2465 84.7803 35.8935 86.2925 35.8918V34.6437Z" fill="currentColor"/>
<path d="M83.5332 27.4009L82.7029 26.4753C81.5803 27.4999 80.9403 28.9577 80.942 30.4865H82.1781C82.1769 29.3103 82.6693 28.1889 83.5332 27.4009Z" fill="currentColor"/>
</svg>
